<?xml version="1.0" encoding="utf-8"?>
<svg xmlns="http://www.w3.org/2000/svg" clip-rule="evenodd" fill-rule="evenodd" stroke-linecap="round" stroke-linejoin="round" stroke-miterlimit="1.5" viewBox="0 0 1200 500">
	<title>Map of prison rooms showing five individual square rooms in a horizontal line, with a passage above them the width of all five rooms combined, and a sixth room below the five the full width of all five.</title>
	<path d="M148.624 161.566H325.789V338.731H148.624z" fill="#fff" stroke="#000" stroke-width="8.33"/>
	<path d="M148.89 20.069H1034.717V161.801H148.89zM148.89 338.364H1034.717V480.096H148.89z" fill="#fff" stroke="#000" stroke-width="8.33"/>
	<path d="M484.732 84.023l0-12.484 7.117 0c1.05 0 2.061.078 3.033.234.973.155 1.828.457 2.567.904.739.447 1.332 1.079 1.779 1.896.447.816.671 1.886.671 3.208 0 1.322-.224 2.392-.671 3.208-.447.817-1.04 1.449-1.779 1.896-.739.447-1.594.749-2.567.904-.972.156-1.983.234-3.033.234l-7.117 0zm-9.158-19.6l0 41.65 9.158 0 0-14.934 9.625 0c2.606 0 4.823-.379 6.65-1.137 1.828-.758 3.316-1.76 4.463-3.004 1.147-1.245 1.983-2.674 2.508-4.288.525-1.614.788-3.257.788-4.929 0-1.711-.263-3.364-.788-4.958-.525-1.595-1.361-3.014-2.508-4.259-1.147-1.244-2.635-2.245-4.463-3.004-1.827-.758-4.044-1.137-6.65-1.137l-18.783 0zM513.257 85.189c.117-1.944.603-3.558 1.459-4.841.855-1.284 1.944-2.314 3.266-3.092 1.323-.778 2.81-1.332 4.463-1.662 1.653-.331 3.315-.496 4.987-.496 1.517 0 3.053.107 4.609.321 1.555.213 2.975.632 4.258 1.254 1.283.622 2.333 1.487 3.15 2.596.817 1.108 1.225 2.576 1.225 4.404l0 15.691c0 1.362.078 2.664.233 3.909.156 1.244.428 2.178.817 2.8l-8.4 0c-.156-.467-.282-.943-.379-1.429-.097-.487-.165-.982-.204-1.488-1.323 1.361-2.878 2.314-4.667 2.858-1.789.545-3.617.817-5.483.817-1.439 0-2.781-.175-4.025-.525-1.245-.35-2.334-.894-3.267-1.633-.933-.739-1.663-1.672-2.188-2.8-.525-1.128-.787-2.47-.787-4.025 0-1.711.301-3.121.904-4.229.603-1.109 1.381-1.993 2.333-2.655.953-.661 2.042-1.157 3.267-1.487 1.225-.331 2.46-.593 3.704-.788 1.245-.194 2.47-.35 3.675-.466 1.206-.117 2.275-.292 3.209-.525.933-.234 1.672-.574 2.216-1.021.545-.447.798-1.099.759-1.954 0-.895-.146-1.604-.438-2.129-.292-.525-.68-.934-1.167-1.225-.486-.292-1.05-.487-1.691-.584-.642-.097-1.332-.146-2.071-.146-1.633 0-2.917.35-3.85 1.05-.933.7-1.478 1.867-1.633 3.5l-8.284 0zm19.134 6.125c-.35.312-.788.555-1.313.73-.525.175-1.089.32-1.692.437-.602.117-1.234.214-1.895.292-.661.078-1.323.175-1.984.291-.622.117-1.234.273-1.837.467-.603.195-1.128.457-1.575.788-.447.33-.807.748-1.079 1.254-.273.505-.409 1.147-.409 1.925 0 .739.136 1.361.409 1.866.272.506.641.905 1.108 1.196.467.292 1.011.496 1.633.613.623.116 1.264.175 1.925.175 1.634 0 2.898-.272 3.792-.817.894-.544 1.556-1.196 1.983-1.954.428-.758.691-1.526.788-2.304.097-.778.146-1.4.146-1.867l0-3.092zM553.507 96.273l-7.875 0c.078 2.022.535 3.704 1.371 5.046.836 1.341 1.906 2.42 3.208 3.237 1.303.817 2.791 1.4 4.463 1.75 1.672.35 3.383.525 5.133.525 1.711 0 3.393-.165 5.046-.496 1.653-.33 3.121-.904 4.404-1.721 1.284-.816 2.324-1.895 3.121-3.237.797-1.342 1.196-3.004 1.196-4.988 0-1.4-.272-2.576-.817-3.529-.544-.953-1.264-1.75-2.158-2.391-.894-.642-1.915-1.157-3.063-1.546-1.147-.389-2.323-.72-3.529-.992-1.166-.272-2.314-.525-3.441-.758-1.128-.234-2.13-.496-3.005-.788-.875-.291-1.584-.671-2.129-1.137-.544-.467-.816-1.07-.816-1.809 0-.622.155-1.118.466-1.487.311-.37.691-.651 1.138-.846.447-.194.943-.321 1.487-.379.545-.058 1.05-.088 1.517-.088 1.478 0 2.761.282 3.85.846 1.089.564 1.692 1.643 1.808 3.238l7.875 0c-.155-1.867-.632-3.413-1.429-4.638-.797-1.225-1.798-2.207-3.004-2.946-1.206-.738-2.576-1.263-4.113-1.575-1.536-.311-3.12-.466-4.754-.466-1.633 0-3.227.146-4.783.437-1.556.292-2.956.797-4.2 1.517-1.244.719-2.246 1.701-3.004 2.946-.759 1.244-1.138 2.839-1.138 4.783 0 1.322.273 2.44.817 3.354.544.914 1.264 1.672 2.158 2.275.895.603 1.916 1.089 3.063 1.459 1.147.369 2.323.69 3.529.962 2.956.622 5.26 1.245 6.912 1.867 1.653.622 2.48 1.555 2.48 2.8 0 .739-.175 1.351-.525 1.837-.35.486-.788.875-1.313 1.167-.525.292-1.108.505-1.75.642-.642.136-1.254.204-1.837.204-.817 0-1.605-.097-2.363-.292-.758-.194-1.429-.496-2.012-.904-.584-.408-1.06-.933-1.43-1.575-.369-.642-.554-1.41-.554-2.304zM584.832 96.273l-7.875 0c.078 2.022.535 3.704 1.371 5.046.836 1.341 1.906 2.42 3.208 3.237 1.303.817 2.791 1.4 4.463 1.75 1.672.35 3.383.525 5.133.525 1.711 0 3.393-.165 5.046-.496 1.653-.33 3.121-.904 4.404-1.721 1.284-.816 2.324-1.895 3.121-3.237.797-1.342 1.196-3.004 1.196-4.988 0-1.4-.272-2.576-.817-3.529-.544-.953-1.264-1.75-2.158-2.391-.894-.642-1.915-1.157-3.063-1.546-1.147-.389-2.323-.72-3.529-.992-1.166-.272-2.314-.525-3.441-.758-1.128-.234-2.13-.496-3.005-.788-.875-.291-1.584-.671-2.129-1.137-.544-.467-.816-1.07-.816-1.809 0-.622.155-1.118.466-1.487.311-.37.691-.651 1.138-.846.447-.194.943-.321 1.487-.379.545-.058 1.05-.088 1.517-.088 1.478 0 2.761.282 3.85.846 1.089.564 1.692 1.643 1.808 3.238l7.875 0c-.155-1.867-.632-3.413-1.429-4.638-.797-1.225-1.798-2.207-3.004-2.946-1.206-.738-2.576-1.263-4.113-1.575-1.536-.311-3.12-.466-4.754-.466-1.633 0-3.227.146-4.783.437-1.556.292-2.956.797-4.2 1.517-1.244.719-2.246 1.701-3.004 2.946-.759 1.244-1.138 2.839-1.138 4.783 0 1.322.273 2.44.817 3.354.544.914 1.264 1.672 2.158 2.275.895.603 1.916 1.089 3.063 1.459 1.147.369 2.323.69 3.529.962 2.956.622 5.26 1.245 6.912 1.867 1.653.622 2.48 1.555 2.48 2.8 0 .739-.175 1.351-.525 1.837-.35.486-.788.875-1.313 1.167-.525.292-1.108.505-1.75.642-.642.136-1.254.204-1.837.204-.817 0-1.605-.097-2.363-.292-.758-.194-1.429-.496-2.012-.904-.584-.408-1.06-.933-1.43-1.575-.369-.642-.554-1.41-.554-2.304zM609.391 85.189c.116-1.944.602-3.558 1.458-4.841.856-1.284 1.944-2.314 3.267-3.092 1.322-.778 2.809-1.332 4.462-1.662 1.653-.331 3.315-.496 4.988-.496 1.516 0 3.052.107 4.608.321 1.556.213 2.975.632 4.258 1.254 1.284.622 2.334 1.487 3.15 2.596.817 1.108 1.225 2.576 1.225 4.404l0 15.691c0 1.362.078 2.664.234 3.909.155 1.244.427 2.178.816 2.8l-8.4 0c-.155-.467-.282-.943-.379-1.429-.097-.487-.165-.982-.204-1.488-1.322 1.361-2.878 2.314-4.667 2.858-1.789.545-3.616.817-5.483.817-1.439 0-2.781-.175-4.025-.525-1.244-.35-2.333-.894-3.267-1.633-.933-.739-1.662-1.672-2.187-2.8-.525-1.128-.788-2.47-.788-4.025 0-1.711.302-3.121.904-4.229.603-1.109 1.381-1.993 2.334-2.655.953-.661 2.041-1.157 3.266-1.487 1.225-.331 2.46-.593 3.705-.788 1.244-.194 2.469-.35 3.675-.466 1.205-.117 2.275-.292 3.208-.525.933-.234 1.672-.574 2.217-1.021.544-.447.797-1.099.758-1.954 0-.895-.146-1.604-.438-2.129-.291-.525-.68-.934-1.166-1.225-.486-.292-1.05-.487-1.692-.584-.642-.097-1.332-.146-2.071-.146-1.633 0-2.916.35-3.85 1.05-.933.7-1.477 1.867-1.633 3.5l-8.283 0zm19.133 6.125c-.35.312-.788.555-1.313.73-.525.175-1.088.32-1.691.437-.603.117-1.235.214-1.896.292-.661.078-1.322.175-1.983.291-.623.117-1.235.273-1.838.467-.603.195-1.128.457-1.575.788-.447.33-.807.748-1.079 1.254-.272.505-.408 1.147-.408 1.925 0 .739.136 1.361.408 1.866.272.506.642.905 1.108 1.196.467.292 1.011.496 1.634.613.622.116 1.264.175 1.925.175 1.633 0 2.897-.272 3.791-.817.895-.544 1.556-1.196 1.984-1.954.427-.758.69-1.526.787-2.304.097-.778.146-1.4.146-1.867l0-3.092zM657.282 98.956c-1.283 0-2.352-.272-3.208-.817-.856-.544-1.546-1.244-2.071-2.1-.525-.855-.894-1.818-1.108-2.887-.214-1.07-.321-2.149-.321-3.238 0-1.127.126-2.207.379-3.237.253-1.031.661-1.945 1.225-2.742.564-.797 1.264-1.429 2.1-1.896.836-.466 1.838-.7 3.004-.7 1.361 0 2.489.253 3.384.759.894.505 1.614 1.186 2.158 2.041.544.856.933 1.838 1.167 2.946.233 1.109.35 2.285.35 3.529 0 1.089-.146 2.13-.438 3.121-.292.992-.729 1.877-1.312 2.654-.584.778-1.323 1.4-2.217 1.867-.894.467-1.925.7-3.092.7zm14.934 5.192l0-28.234-7.875 0 0 4.025-.117 0c-1.011-1.75-2.265-2.994-3.763-3.733-1.497-.739-3.237-1.108-5.22-1.108-2.1 0-3.957.408-5.571 1.225-1.614.816-2.965 1.915-4.054 3.296-1.089 1.38-1.916 2.975-2.48 4.783-.563 1.808-.845 3.685-.845 5.629 0 2.061.243 4.015.729 5.863.486 1.847 1.254 3.461 2.304 4.841 1.05 1.381 2.392 2.47 4.025 3.267 1.633.797 3.578 1.196 5.833 1.196 1.828 0 3.568-.379 5.221-1.138 1.653-.758 2.927-1.934 3.821-3.529l.117 0 0 3.967c.039 2.139-.477 3.908-1.546 5.308-1.07 1.4-2.771 2.1-5.104 2.1-1.478 0-2.781-.301-3.909-.904-1.127-.603-1.886-1.682-2.275-3.238l-8.225 0c.117 1.712.593 3.18 1.429 4.405.837 1.225 1.887 2.226 3.15 3.004 1.264.778 2.664 1.351 4.2 1.721 1.537.369 3.044.554 4.521.554 3.461 0 6.223-.467 8.284-1.4 2.061-.934 3.636-2.071 4.725-3.413 1.089-1.341 1.798-2.79 2.129-4.346.33-1.555.496-2.936.496-4.141zM699.166 87.756l-13.475 0c.039-.583.165-1.244.379-1.983.214-.739.583-1.439 1.108-2.1.525-.661 1.225-1.216 2.1-1.663.875-.447 1.974-.671 3.296-.671 2.022 0 3.529.545 4.521 1.634.991 1.089 1.682 2.683 2.071 4.783zm-13.475 5.25l21.758 0c.156-2.333-.039-4.569-.583-6.708-.545-2.139-1.43-4.045-2.655-5.717-1.225-1.672-2.79-3.004-4.695-3.996-1.906-.991-4.142-1.487-6.709-1.487-2.294 0-4.384.408-6.271 1.225-1.886.816-3.509 1.934-4.87 3.354-1.361 1.419-2.411 3.101-3.15 5.046-.739 1.944-1.109 4.044-1.109 6.3 0 2.333.36 4.472 1.079 6.416.72 1.945 1.741 3.617 3.063 5.017 1.322 1.4 2.936 2.479 4.842 3.238 1.905.758 4.044 1.137 6.416 1.137 3.423 0 6.339-.778 8.75-2.333 2.411-1.556 4.2-4.142 5.367-7.759l-7.292 0c-.272.934-1.011 1.818-2.216 2.655-1.206.836-2.645 1.254-4.317 1.254-2.333 0-4.122-.603-5.367-1.809-1.244-1.205-1.925-3.15-2.041-5.833zM242.573 270.974l13.825-41.65-9.45 0-9.392 29.283-.117 0-9.275-29.283-9.391 0 13.475 41.65 10.325 0z" fill-rule="nonzero"/>
	<path d="M326.176 161.566H503.341V338.41700000000003H326.176z" fill="#fff" stroke="#000" stroke-width="8.33"/>
	<path d="M389.559 229.481H398.71700000000004V271.131H389.559zM426.134 271.131l13.825-41.65-9.45 0-9.392 29.283-.117 0-9.275-29.283-9.391 0 13.475 41.65 10.325 0zM590.758 430.055l13.825-41.65-9.45 0-9.391 29.283-.117 0-9.275-29.283-9.392 0 13.475 41.65 10.325 0zM608.142 388.405H617.3000000000001V430.05499999999995H608.142z" fill-rule="nonzero"/>
	<path d="M503.547 161.566H680.712V338.41700000000003H503.547z" fill="#fff" stroke="#000" stroke-width="8.33"/>
	<path d="M570.342 229.481H579.5V271.131H570.342zM587.55 229.481H596.708V271.131H587.55zM604.758 229.481H613.916V271.131H604.758z" fill-rule="nonzero"/>
	<path d="M680.72 161.566H857.885V338.41700000000003H680.72z" fill="#fff" stroke="#000" stroke-width="8.33"/>
	<path d="M755.12 229.481H764.278V271.131H755.12zM772.328 229.481H781.486V271.131H772.328z" fill-rule="nonzero"/>
	<path d="M857.551 161.566H1034.7160000000001V338.41700000000003H857.551z" fill="#fff" stroke="#000" stroke-width="8.33"/>
	<path d="M940.555 229.481H949.713V271.131H940.555z" fill-rule="nonzero"/>
	<path d="M228.207 147.836l0 29.527M246.207 147.836l0 29.527M228.207 323.836l0 29.527M246.207 323.836l0 29.527M405.759 147.836l0 29.527M423.759 147.836l0 29.527M760.303 147.836l0 29.527M778.303 147.836l0 29.527M937.134 147.836l0 29.527M955.134 147.836l0 29.527M583.129 147.836l0 29.527M601.129 147.836l0 29.527" fill="none" stroke="#000" stroke-width="8.33"/>
</svg>
