<?xml version="1.0" encoding="utf-8"?>
<svg xmlns="http://www.w3.org/2000/svg" style="stroke-linecap:round;stroke-linejoin:round" version="1.1" viewBox="0 0 895 469">
	<title>A map of prison rooms showing five individual square rooms in a horizontal line, with a passage above them the width of all five rooms combined, and a sixth room below the five the full width of all five.</title>
	<path d="M 4.4527499,145.9835 H 181.61775 v 177.165 H 4.4527499 Z" style="fill:none;stroke:#000000;stroke-width:8.32999992"/>
	<path d="M 4.7187499,4.4865023 H 890.54575 V 146.2185 H 4.7187499 Z" style="fill:none;stroke:#000000;stroke-width:8.33300018;"/>
	<path d="M 4.7187499,322.7815 H 890.54575 v 141.732 H 4.7187499 Z" style="fill:none;stroke:#000000;stroke-width:8.33300018;"/>
	<path d="m 182.00475,145.9835 h 177.165 v 176.851 h -177.165 z" style="fill:none;stroke:#000000;stroke-width:8.32999992;"/>
	<path d="m 359.37575,145.9835 h 177.165 v 176.851 h -177.165 z" style="fill:none;stroke:#000000;stroke-width:8.32999992"/>
	<path d="m 536.54875,145.9835 h 177.165 v 176.851 h -177.165 z" style="fill:none;stroke:#000000;stroke-width:8.32999992"/>
	<path d="m 713.37975,145.9835 h 177.165 v 176.851 h -177.165 z" style="fill:none;stroke:#000000;stroke-width:8.32999992"/>
	<path d="m 84.03575,132.2535 v 29.527 m 18,-29.527 v 29.527 m -18,146.473 v 29.527 m 18,-29.527 v 29.527 m 159.552,-205.527 v 29.527 m 18,-29.527 v 29.527 m 336.544,-29.527 v 29.527 m 18,-29.527 v 29.527 m 158.831,-29.527 v 29.527 m 18,-29.527 v 29.527 m -372.005,-29.527 v 29.527 m 18,-29.527 v 29.527" style="fill:none;stroke:#000000;stroke-width:8.32999992"/>
	<text style="font-weight:bold;font-size:53.33333206px" x="322.73642" y="89.037407">Passage</text>
	<text style="font-weight:bold;font-size:53.33333206px" x="72.397232" y="254.0061">V</text>
	<text style="font-weight:bold;font-size:53.33333206px" x="237.70964" y="248.48251">IV</text>
	<text style="font-weight:bold;font-size:53.33333206px" x="418.20563" y="253.84912">III</text>
	<text style="font-weight:bold;font-size:53.33333206px" x="605.30048" y="253.84912">II</text>
	<text style="font-weight:bold;font-size:53.33333206px" x="792.05341" y="253.84912">I</text>
	<text style="font-weight:bold;font-size:53.33333206px" x="419.40308" y="413.08762">VI</text>
</svg>
